<svg width="156" height="17" viewBox="0 0 156 17" fill="none" xmlns="http://www.w3.org/2000/svg">
<path d="M144.357 5.28H146.717L147.757 14.34H149.637L152.897 5.28H155.297L151.537 15.58C151.337 16.14 150.951 16.42 150.377 16.42H146.697C146.404 16.42 146.164 16.3333 145.977 16.16C145.791 16 145.677 15.76 145.637 15.44L144.357 5.28Z" fill="white"/>
<path d="M132.101 3.6L132.361 1.4H144.221L143.961 3.6H139.141L137.601 16.42H135.241L136.781 3.6H132.101Z" fill="white"/>
<path d="M117.239 6.42L116.159 15.42H113.859L115.219 4.28H120.239C122.999 4.28 124.379 5.54666 124.379 8.08C124.379 8.38666 124.359 8.72 124.319 9.08L123.539 15.42H121.239L122.019 9.02C122.046 8.75333 122.059 8.56667 122.059 8.46C122.059 7.1 121.366 6.42 119.979 6.42H117.239Z" fill="#4DD081"/>
<path d="M102.09 9.02C102.477 5.80666 104.244 4.2 107.39 4.2H108.35C111.11 4.2 112.49 5.46666 112.49 8C112.49 8.30666 112.47 8.64 112.43 9L112.23 10.68C111.844 13.8933 110.077 15.5 106.93 15.5H105.97C103.21 15.5 101.83 14.2333 101.83 11.7C101.83 11.3933 101.85 11.06 101.89 10.7L102.09 9.02ZM107.19 13.36C108.79 13.36 109.697 12.4867 109.91 10.74L110.13 8.94C110.157 8.67333 110.17 8.48666 110.17 8.38C110.17 7.02 109.477 6.34 108.09 6.34H107.13C105.53 6.34 104.624 7.21333 104.41 8.96L104.19 10.76C104.164 11.0267 104.15 11.2133 104.15 11.32C104.15 12.68 104.844 13.36 106.23 13.36H107.19Z" fill="#4DD081"/>
<path d="M98.1309 2.78001L98.4309 0.380005H101.051L100.751 2.78001H98.1309ZM99.0509 15.42H96.7509L98.1309 4.28001H100.431L99.0509 15.42Z" fill="#4DD081"/>
<path d="M87.5228 6.42L87.7828 4.28H90.3028L90.6428 1.44H92.9428L92.6028 4.28H96.0028L95.7428 6.42H92.3428L91.7228 11.52C91.7095 11.6133 91.7028 11.74 91.7028 11.9C91.7028 12.7933 92.1428 13.24 93.0228 13.24C93.3961 13.24 94.0628 13.2267 95.0228 13.2L94.7628 15.38C94.2295 15.4067 93.5628 15.42 92.7628 15.42C91.6695 15.42 90.8228 15.1733 90.2228 14.68C89.6228 14.1867 89.3228 13.4533 89.3228 12.48C89.3228 12.3733 89.3361 12.1733 89.3628 11.88L90.0228 6.42H87.5228Z" fill="#4DD081"/>
<path d="M76.0944 9.02C76.481 5.80666 78.2477 4.2 81.3944 4.2H82.3544C85.1144 4.2 86.4944 5.46666 86.4944 8C86.4944 8.30666 86.4744 8.64 86.4344 9L86.2344 10.68C85.8477 13.8933 84.081 15.5 80.9344 15.5H79.9744C77.2144 15.5 75.8344 14.2333 75.8344 11.7C75.8344 11.3933 75.8544 11.06 75.8944 10.7L76.0944 9.02ZM81.1944 13.36C82.7944 13.36 83.701 12.4867 83.9144 10.74L84.1344 8.94C84.161 8.67333 84.1744 8.48666 84.1744 8.38C84.1744 7.02 83.481 6.34 82.0944 6.34H81.1344C79.5344 6.34 78.6277 7.21333 78.4144 8.96L78.1944 10.76C78.1677 11.0267 78.1544 11.2133 78.1544 11.32C78.1544 12.68 78.8477 13.36 80.2344 13.36H81.1944Z" fill="#4DD081"/>
<path d="M62.4633 0.400002L65.7633 12.68H65.8433L72.1833 0.400002H74.7833L72.9433 15.42H70.7833L72.0833 4.82L66.9033 14.8C66.6899 15.2133 66.3566 15.42 65.9033 15.42H65.0833C64.6166 15.42 64.3366 15.2133 64.2433 14.8L61.4833 4.82L60.1833 15.42H58.0233L59.8633 0.400002H62.4633Z" fill="#4DD081"/>
<path d="M44.2806 6.42L44.5406 4.28H47.0606L47.4006 1.44H49.7006L49.3606 4.28H52.7606L52.5006 6.42H49.1006L48.4806 11.52C48.4673 11.6133 48.4606 11.74 48.4606 11.9C48.4606 12.7933 48.9006 13.24 49.7806 13.24C50.154 13.24 50.8206 13.2267 51.7806 13.2L51.5206 15.38C50.9873 15.4067 50.3206 15.42 49.5206 15.42C48.4273 15.42 47.5806 15.1733 46.9806 14.68C46.3806 14.1867 46.0806 13.4533 46.0806 12.48C46.0806 12.3733 46.094 12.1733 46.1206 11.88L46.7806 6.42H44.2806Z" fill="white"/>
<path d="M43.5961 6.46C42.7694 6.43333 42.2361 6.42 41.9961 6.42C41.1428 6.42 40.5028 6.62667 40.0761 7.04C39.6494 7.44 39.3828 8.10666 39.2761 9.04L38.4761 15.42H36.1761L36.9561 9.1C37.1561 7.40667 37.6628 6.18 38.4761 5.42C39.3028 4.66 40.5628 4.28 42.2561 4.28C42.9228 4.28 43.4894 4.3 43.9561 4.34L43.5961 6.46Z" fill="white"/>
<path d="M24.7077 9.02C25.0943 5.80666 26.861 4.2 30.0077 4.2H30.9677C33.7277 4.2 35.1077 5.46666 35.1077 8C35.1077 8.30666 35.0877 8.64 35.0477 9L34.8477 10.68C34.461 13.8933 32.6943 15.5 29.5477 15.5H28.5877C25.8277 15.5 24.4477 14.2333 24.4477 11.7C24.4477 11.3933 24.4677 11.06 24.5077 10.7L24.7077 9.02ZM29.8077 13.36C31.4077 13.36 32.3143 12.4867 32.5277 10.74L32.7477 8.94C32.7743 8.67333 32.7877 8.48666 32.7877 8.38C32.7877 7.02 32.0943 6.34 30.7077 6.34H29.7477C28.1477 6.34 27.241 7.21333 27.0277 8.96L26.8077 10.76C26.781 11.0267 26.7677 11.2133 26.7677 11.32C26.7677 12.68 27.461 13.36 28.8477 13.36H29.8077Z" fill="white"/>
<path d="M14.0397 0H16.3397L15.8197 4.28H18.5397C21.2997 4.28 22.6797 5.54667 22.6797 8.08C22.6797 8.38667 22.6597 8.72 22.6197 9.08L21.8397 15.42H19.5397L20.3197 9.02C20.3464 8.75333 20.3597 8.56667 20.3597 8.46C20.3597 7.1 19.6664 6.42 18.2797 6.42H15.5597L14.4597 15.42H12.1597L14.0397 0Z" fill="white"/>
<path d="M4.32 15.5C2.57333 15.5 1.13333 15.4133 0 15.24L0.28 13C1.90667 13.2 3.34 13.3 4.58 13.3H4.84C5.68 13.3 6.34 13.22 6.82 13.06C7.31333 12.9 7.66667 12.6667 7.88 12.36C8.09333 12.0533 8.22667 11.66 8.28 11.18C8.30667 10.94 8.32 10.7733 8.32 10.68C8.32 10.2133 8.21333 9.86 8 9.62C7.78667 9.38 7.46667 9.21334 7.04 9.12C6.62667 9.01334 6 8.90667 5.16 8.8C4.2 8.69333 3.44 8.52667 2.88 8.3C2.32 8.07334 1.9 7.74667 1.62 7.32C1.35333 6.88 1.22 6.29334 1.22 5.56C1.22 5.26667 1.24 4.94 1.28 4.58C1.45333 3.07334 1.96 2 2.8 1.36C3.64 0.720001 4.92667 0.400002 6.66 0.400002H8.06C9.07333 0.400002 10.1933 0.413335 11.42 0.440001L11.16 2.64C10.4533 2.64 9.91333 2.63333 9.54 2.62L7.8 2.6H6.4C5.42667 2.6 4.71333 2.77334 4.26 3.12C3.82 3.45334 3.6 4.09334 3.6 5.04C3.6 5.45334 3.68 5.76667 3.84 5.98C4 6.18 4.22 6.32 4.5 6.4C4.78 6.48 5.23333 6.56667 5.86 6.66C5.98 6.67334 6.22 6.70667 6.58 6.76C7.56667 6.90667 8.35333 7.1 8.94 7.34C9.52667 7.58 9.96667 7.92667 10.26 8.38C10.5533 8.82 10.7 9.42 10.7 10.18C10.7 10.46 10.68 10.76 10.64 11.08C10.5067 12.1867 10.2133 13.06 9.76 13.7C9.32 14.34 8.68 14.8 7.84 15.08C7 15.36 5.91333 15.5 4.58 15.5H4.32Z" fill="white"/>
</svg>
